<?xml version="1.0" encoding="UTF-8"?>
<svg width="31px" height="31px" viewBox="0 0 31 31" version="1.1" xmlns="http://www.w3.org/2000/svg" xmlns:xlink="http://www.w3.org/1999/xlink">
    <!-- Generator: Sketch 48.1 (47250) - http://www.bohemiancoding.com/sketch -->
    <title>m-drop</title>
    <desc>Created with Sketch.</desc>
    <defs></defs>
    <g id="Shop---Product-Desktop" stroke="none" stroke-width="1" fill="none" fill-rule="evenodd" transform="translate(-977.000000, -1309.000000)">
        <g id="m-drop" transform="translate(977.000000, 1309.000000)">
            <path d="M31,15.5491049 L31,15.4508951 C31,6.91787854 24.0825811,0 15.54881,0 L15.45119,0 C6.91741894,0 0,6.91787854 0,15.4508951 L0,31 L15.54881,31 C24.0825811,31 31,24.0821215 31,15.5491049" id="Fill-3-Copy" fill="#000000"></path>
            <polygon id="M" fill="#FFFFFF" points="15.886 19.82 14.864 19.82 12.19 12.232 12.134 12.232 12.134 19.82 11 19.82 11 11 12.946 11 15.424 18.182 15.466 18.182 17.818 11 19.736 11 19.736 19.82 18.518 19.82 18.518 12.232 18.462 12.232"></polygon>
        </g>
    </g>
</svg>