<?xml version="1.0" encoding="UTF-8"?>
<svg width="20px" height="16px" viewBox="0 0 20 16" version="1.1" xmlns="http://www.w3.org/2000/svg" xmlns:xlink="http://www.w3.org/1999/xlink">
    <!-- Generator: Sketch 48.1 (47250) - http://www.bohemiancoding.com/sketch -->
    <title>menu - simple-line-icons</title>
    <desc>Created with Sketch.</desc>
    <defs></defs>
    <g id="Tablet" stroke="none" stroke-width="1" fill="none" fill-rule="evenodd" transform="translate(-708.000000, -32.000000)">
        <path d="M708.527344,34.0390625 C708.449218,33.9479162 708.390625,33.8535161 708.351562,33.7558594 C708.3125,33.6582026 708.292969,33.5442715 708.292969,33.4140625 C708.292969,33.2968744 708.3125,33.1861984 708.351562,33.0820312 C708.390625,32.9778641 708.449218,32.8867191 708.527344,32.8085938 C708.605469,32.7304684 708.696614,32.6718752 708.800781,32.6328125 C708.904948,32.5937498 709.015624,32.5742188 709.132812,32.5742188 L726.964844,32.5742188 C727.082032,32.5742188 727.192708,32.5937498 727.296875,32.6328125 C727.401042,32.6718752 727.492187,32.7304684 727.570312,32.8085938 C727.648438,32.8867191 727.707031,32.9778641 727.746094,33.0820312 C727.785156,33.1861984 727.804688,33.2968744 727.804688,33.4140625 C727.804688,33.5442715 727.785156,33.6582026 727.746094,33.7558594 C727.707031,33.8535161 727.648438,33.9479162 727.570312,34.0390625 C727.492187,34.1171879 727.401042,34.1757811 727.296875,34.2148438 C727.192708,34.2539064 727.082032,34.2734375 726.964844,34.2734375 L709.132812,34.2734375 C709.015624,34.2734375 708.904948,34.2539064 708.800781,34.2148438 C708.696614,34.1757811 708.605469,34.1171879 708.527344,34.0390625 Z M727.570312,39.6054688 C727.648438,39.6835941 727.707031,39.7747391 727.746094,39.8789062 C727.785156,39.9830734 727.804688,40.0937494 727.804688,40.2109375 C727.804688,40.3281256 727.785156,40.4388016 727.746094,40.5429688 C727.707031,40.6471359 727.648438,40.7382809 727.570312,40.8164062 C727.492187,40.8945316 727.401042,40.9531248 727.296875,40.9921875 C727.192708,41.0312502 727.082032,41.0507812 726.964844,41.0507812 L709.132812,41.0507812 C709.015624,41.0507812 708.904948,41.0312502 708.800781,40.9921875 C708.696614,40.9531248 708.605469,40.8945316 708.527344,40.8164062 C708.449218,40.7382809 708.390625,40.6471359 708.351562,40.5429688 C708.3125,40.4388016 708.292969,40.3281256 708.292969,40.2109375 C708.292969,40.0937494 708.3125,39.9830734 708.351562,39.8789062 C708.390625,39.7747391 708.449218,39.6835941 708.527344,39.6054688 C708.605469,39.5273434 708.696614,39.4687502 708.800781,39.4296875 C708.904948,39.3906248 709.015624,39.3710938 709.132812,39.3710938 L726.964844,39.3710938 C727.082032,39.3710938 727.192708,39.3906248 727.296875,39.4296875 C727.401042,39.4687502 727.492187,39.5273434 727.570312,39.6054688 Z M727.570312,46.3828125 C727.648438,46.4609379 727.707031,46.5520828 727.746094,46.65625 C727.785156,46.7604172 727.804688,46.8710932 727.804688,46.9882812 C727.804688,47.1184902 727.785156,47.2324214 727.746094,47.3300781 C727.707031,47.4277349 727.648438,47.522135 727.570312,47.6132812 C727.492187,47.6914066 727.401042,47.7499998 727.296875,47.7890625 C727.192708,47.8281252 727.082032,47.8476562 726.964844,47.8476562 L709.132812,47.8476562 C709.015624,47.8476562 708.904948,47.8281252 708.800781,47.7890625 C708.696614,47.7499998 708.605469,47.6914066 708.527344,47.6132812 C708.449218,47.522135 708.390625,47.4277349 708.351562,47.3300781 C708.3125,47.2324214 708.292969,47.1184902 708.292969,46.9882812 C708.292969,46.8710932 708.3125,46.7604172 708.351562,46.65625 C708.390625,46.5520828 708.449218,46.4609379 708.527344,46.3828125 C708.605469,46.3046871 708.696614,46.2460939 708.800781,46.2070312 C708.904948,46.1679686 709.015624,46.1484375 709.132812,46.1484375 L726.964844,46.1484375 C727.082032,46.1484375 727.192708,46.1679686 727.296875,46.2070312 C727.401042,46.2460939 727.492187,46.3046871 727.570312,46.3828125 Z" id="menu---simple-line-icons" fill="#FFFFFF"></path>
    </g>
</svg>