<?xml version="1.0" encoding="UTF-8"?>
<svg width="31px" height="31px" viewBox="0 0 31 31" version="1.1" xmlns="http://www.w3.org/2000/svg" xmlns:xlink="http://www.w3.org/1999/xlink">
    <!-- Generator: Sketch 48.1 (47250) - http://www.bohemiancoding.com/sketch -->
    <title>s-drop</title>
    <desc>Created with Sketch.</desc>
    <defs></defs>
    <g id="Shop---Product-Desktop" stroke="none" stroke-width="1" fill="none" fill-rule="evenodd" transform="translate(-919.000000, -1309.000000)">
        <g id="s-drop" transform="translate(919.000000, 1309.000000)">
            <path d="M31,15.5491049 L31,15.4508951 C31,6.91787854 24.0825811,0 15.54881,0 L15.45119,0 C6.91741894,0 0,6.91787854 0,15.4508951 L0,31 L15.54881,31 C24.0825811,31 31,24.0821215 31,15.5491049" id="Fill-3" fill="#000000"></path>
            <path d="M12,16.838 L13.092,16.768 C13.162,18.378 14.268,19.204 15.752,19.204 C17.068,19.204 17.894,18.644 17.894,17.678 C17.894,16.866 17.362,16.474 16.214,16.25 L14.464,15.914 C13.162,15.662 12.266,14.962 12.266,13.59 C12.266,12.05 13.484,11 15.416,11 C17.628,11 18.902,12.176 18.916,14.164 L17.81,14.22 C17.768,12.764 16.886,11.938 15.43,11.938 C14.156,11.938 13.442,12.54 13.442,13.52 C13.442,14.388 14.016,14.668 15.038,14.864 L16.634,15.172 C18.244,15.48 19.056,16.18 19.056,17.594 C19.056,19.218 17.656,20.156 15.752,20.156 C13.582,20.156 12,18.966 12,16.838 Z" id="S" fill="#FFFFFF"></path>
        </g>
    </g>
</svg>