<?xml version="1.0" encoding="UTF-8"?>
<svg width="18px" height="19px" viewBox="0 0 18 19" version="1.1" xmlns="http://www.w3.org/2000/svg" xmlns:xlink="http://www.w3.org/1999/xlink">
    <!-- Generator: Sketch 47.1 (45422) - http://www.bohemiancoding.com/sketch -->
    <title>Search</title>
    <desc>Created with Sketch.</desc>
    <defs></defs>
    <g id="Wireframes-v4" stroke="none" stroke-width="1" fill="none" fill-rule="evenodd">
        <g id="Home-v3" transform="translate(-1210.000000, -109.000000)" fill="#000000">
            <path d="M1227.55469,126.039062 C1227.6849,126.182292 1227.75,126.351562 1227.75,126.546875 C1227.75,126.742188 1227.6849,126.911458 1227.55469,127.054688 C1227.41146,127.184896 1227.24219,127.25 1227.04688,127.25 C1226.85156,127.25 1226.6888,127.184896 1226.55859,127.054688 L1222.53516,123.03125 C1221.14192,124.177089 1219.54688,124.75 1217.75,124.75 C1215.67968,124.75 1213.91212,124.017585 1212.44727,122.552734 C1210.98241,121.087883 1210.25,119.320323 1210.25,117.25 C1210.25,115.179677 1210.98241,113.412117 1212.44727,111.947266 C1213.91212,110.482415 1215.67968,109.75 1217.75,109.75 C1219.82032,109.75 1221.58788,110.482415 1223.05273,111.947266 C1224.51759,113.412117 1225.25,115.179677 1225.25,117.25 C1225.25,119.046884 1224.67709,120.64192 1223.53125,122.035156 L1227.55469,126.039062 Z M1220.11328,122.875 C1220.84245,122.562498 1221.49023,122.12305 1222.05664,121.556641 C1222.62305,120.990232 1223.0625,120.342452 1223.375,119.613281 C1223.6875,118.87109 1223.84375,118.083337 1223.84375,117.25 C1223.84375,116.416663 1223.6875,115.62891 1223.375,114.886719 C1223.0625,114.157548 1222.62305,113.509768 1222.05664,112.943359 C1221.49023,112.37695 1220.84245,111.937502 1220.11328,111.625 C1219.37109,111.312498 1218.58334,111.15625 1217.75,111.15625 C1216.91666,111.15625 1216.12891,111.312498 1215.38672,111.625 C1214.65755,111.937502 1214.00977,112.37695 1213.44336,112.943359 C1212.87695,113.509768 1212.44401,114.157548 1212.14453,114.886719 C1211.81901,115.62891 1211.65625,116.416663 1211.65625,117.25 C1211.65625,118.083337 1211.81901,118.87109 1212.14453,119.613281 C1212.44401,120.342452 1212.87695,120.990232 1213.44336,121.556641 C1214.00977,122.12305 1214.65755,122.562498 1215.38672,122.875 C1216.12891,123.187502 1216.91666,123.34375 1217.75,123.34375 C1218.58334,123.34375 1219.37109,123.187502 1220.11328,122.875 Z" id="Search"></path>
        </g>
    </g>
</svg>