<?xml version="1.0" encoding="UTF-8"?>
<svg width="75px" height="75px" viewBox="0 0 75 75" version="1.1" xmlns="http://www.w3.org/2000/svg" xmlns:xlink="http://www.w3.org/1999/xlink">
    <!-- Generator: Sketch 47.1 (45422) - http://www.bohemiancoding.com/sketch -->
    <title>shop-view-toggle</title>
    <desc>Created with Sketch.</desc>
    <defs></defs>
    <g id="Shop" stroke="none" stroke-width="1" fill="none" fill-rule="evenodd">
        <g transform="translate(-933.000000, -1835.000000)" id="Group-3">
            <g transform="translate(132.000000, 1142.000000)">
                <g id="shop-view-toggle" transform="translate(801.000000, 693.000000)">
                    <path d="M75,37.6188022 L75,37.3811978 C75,16.7368029 58.264309,0 37.6180888,0 L37.3819112,0 C16.735691,0 0,16.7368029 0,37.3811978 L0,75 L37.6180888,75 C58.264309,75 75,58.2631971 75,37.6188022" id="Fill-1-Copy" fill="#734A9D" transform="translate(37.500000, 37.500000) rotate(-360.000000) translate(-37.500000, -37.500000) "></path>
                    <path d="M37.5,31.625 C38.4900049,31.625 39.4199957,31.8799975 40.29,32.39 C41.1600044,32.9000025 41.8499975,33.5899956 42.36,34.46 C42.8700025,35.3300043 43.125,36.2599951 43.125,37.25 C43.125,38.2400049 42.8700025,39.1699957 42.36,40.04 C41.8499975,40.9100044 41.1600044,41.5999975 40.29,42.11 C39.4199957,42.6200025 38.4900049,42.875 37.5,42.875 C36.5099951,42.875 35.5800043,42.6200025 34.71,42.11 C33.8399956,41.5999975 33.1500025,40.9100044 32.64,40.04 C32.1299975,39.1699957 31.875,38.2400049 31.875,37.25 C31.875,36.2599951 32.1299975,35.3300043 32.64,34.46 C33.1500025,33.5899956 33.8399956,32.9000025 34.71,32.39 C35.5800043,31.8799975 36.5099951,31.625 37.5,31.625 Z M37.5,46.655 C39.2100085,46.655 40.7849928,46.2350042 42.225,45.395 C43.6650072,44.5549958 44.8049958,43.4150072 45.645,41.975 C46.4850042,40.5349928 46.905,38.9600085 46.905,37.25 C46.905,35.5399915 46.4850042,33.9650072 45.645,32.525 C44.8049958,31.0849928 43.6650072,29.9450042 42.225,29.105 C40.7849928,28.2649958 39.2100085,27.845 37.5,27.845 C35.7899915,27.845 34.2150072,28.2649958 32.775,29.105 C31.3349928,29.9450042 30.1950042,31.0849928 29.355,32.525 C28.5149958,33.9650072 28.095,35.5399915 28.095,37.25 C28.095,38.9600085 28.5149958,40.5349928 29.355,41.975 C30.1950042,43.4150072 31.3349928,44.5549958 32.775,45.395 C34.2150072,46.2350042 35.7899915,46.655 37.5,46.655 Z M37.5,23.165 C40.5900155,23.165 43.5299861,23.764994 46.32,24.965 C49.0200135,26.1350058 51.3974897,27.7849894 53.4525,29.915 C55.5075103,32.0450106 57.0749946,34.4899862 58.155,37.25 C57.0749946,40.0100138 55.5075103,42.4474894 53.4525,44.5625 C51.3974897,46.6775106 49.0200135,48.3199941 46.32,49.49 C43.5299861,50.690006 40.5900155,51.29 37.5,51.29 C34.4099845,51.29 31.4700139,50.690006 28.68,49.49 C25.9799865,48.3199941 23.6025103,46.6775106 21.5475,44.5625 C19.4924897,42.4474894 17.9250054,40.0100138 16.845,37.25 C17.9250054,34.4899862 19.4924897,32.0450106 21.5475,29.915 C23.6025103,27.7849894 25.9799865,26.1350058 28.68,24.965 C31.4700139,23.764994 34.4099845,23.165 37.5,23.165 Z" id="remove_red_eye---material-copy" fill="#FFFFFF"></path>
                </g>
            </g>
        </g>
    </g>
</svg>