<?xml version="1.0" encoding="UTF-8"?>
<svg width="75px" height="75px" viewBox="0 0 75 75" version="1.1" xmlns="http://www.w3.org/2000/svg" xmlns:xlink="http://www.w3.org/1999/xlink">
    <!-- Generator: Sketch 47.1 (45422) - http://www.bohemiancoding.com/sketch -->
    <title>shop-close-toggle</title>
    <desc>Created with Sketch.</desc>
    <defs></defs>
    <g id="Shop" stroke="none" stroke-width="1" fill="none" fill-rule="evenodd">
        <g transform="translate(-133.000000, -1845.000000)" id="Group-3">
            <g transform="translate(132.000000, 1142.000000)">
                <g id="shop-close-toggle" transform="translate(1.000000, 703.000000)">
                    <path d="M75,37.6188022 L75,37.3811978 C75,16.7368029 58.264309,0 37.6180888,0 L37.3819112,0 C16.735691,0 0,16.7368029 0,37.3811978 L0,75 L37.6180888,75 C58.264309,75 75,58.2631971 75,37.6188022" id="Fill-1-Copy-7" fill="#F3806E" transform="translate(37.500000, 37.500000) rotate(-360.000000) translate(-37.500000, -37.500000) "></path>
                    <path d="M48.234375,29.2617188 C50.988295,31.0781341 54.0351396,34.0077923 57.375,38.0507812 C55.968743,39.5742264 54.9726592,40.6289033 54.3867188,41.2148438 C53.8007783,41.8007842 52.7168048,42.7822197 51.1347656,44.1591797 C49.5527265,45.5361397 48.1904354,46.5468718 47.0478516,47.1914062 C45.9052677,47.8359407 44.4843835,48.4511689 42.7851562,49.0371094 C41.085929,49.6230498 39.3867272,49.9160156 37.6875,49.9160156 C34.7577979,49.9160156 32.0625123,49.2714908 29.6015625,47.9824219 L22.8339844,54.75 L20.8125,52.7285156 L27.0527344,46.4882812 C25.2949131,45.2578063 22.2773651,42.3867413 18,37.875 C21.7500187,33.773417 25.1191257,30.7412208 28.1074219,28.7783203 C31.0957181,26.8154199 34.2890455,25.8339844 37.6875,25.8339844 C40.382826,25.8339844 43.0781115,26.5078058 45.7734375,27.8554688 L52.5410156,21 L54.5625,23.0214844 L48.234375,29.2617188 Z M29.7773438,37.875 C29.7773438,39.4570392 30.2460891,40.9511648 31.1835938,42.3574219 L33.5566406,39.984375 C33.2636704,39.4570286 33.1171875,38.7539106 33.1171875,37.875 C33.1171875,36.5859311 33.5566362,35.4873092 34.4355469,34.5791016 C35.3144575,33.6708939 36.3984311,33.2167969 37.6875,33.2167969 L38.390625,33.2167969 C37.9218727,33.8027373 37.6875,34.4179655 37.6875,35.0625 C37.6875,35.3554702 37.7167966,35.5898429 37.7753906,35.765625 L42.2578125,31.3710938 C40.9101495,30.374995 39.3867272,29.8769531 37.6875,29.8769531 C35.5195204,29.8769531 33.6591875,30.6679608 32.1064453,32.25 C30.5537032,33.8320392 29.7773438,35.7070204 29.7773438,37.875 Z M37.6875,45.8730469 C39.8554796,45.8730469 41.7158125,45.0820392 43.2685547,43.5 C44.8212968,41.9179608 45.5976562,40.0429796 45.5976562,37.875 C45.5976562,36.2343668 45.1289109,34.7109445 44.1914062,33.3046875 L39.796875,37.7871094 C39.9726571,37.8457034 40.2070298,37.875 40.5,37.875 C41.0859404,37.875 41.6718721,37.6699239 42.2578125,37.2597656 L42.2578125,37.875 C42.2578125,39.1640689 41.8183638,40.2626908 40.9394531,41.1708984 C40.0605425,42.0791061 38.9765689,42.5332031 37.6875,42.5332031 C36.8671834,42.5332031 36.1640654,42.3574236 35.578125,42.0058594 L33.1171875,44.3789062 C34.4648505,45.375005 35.9882728,45.8730469 37.6875,45.8730469 Z" id="ion-eye-disabled---Ionicons" fill="#FFFFFF"></path>
                </g>
            </g>
        </g>
    </g>
</svg>