<?xml version="1.0" encoding="UTF-8"?>
<svg width="17px" height="36px" viewBox="0 0 17 36" version="1.1" xmlns="http://www.w3.org/2000/svg" xmlns:xlink="http://www.w3.org/1999/xlink">
    <!-- Generator: Sketch 47.1 (45422) - http://www.bohemiancoding.com/sketch -->
    <title>tbg-logo copy</title>
    <desc>Created with Sketch.</desc>
    <defs></defs>
    <g id="Home" stroke="none" stroke-width="1" fill="none" fill-rule="evenodd">
        <g id="Visit-Today" transform="translate(-60.000000, -28.000000)" fill="#F4F8EB">
            <g id="tbg-logo-copy" transform="translate(60.000000, 28.000000)">
                <path d="M16.505181,27.121751 L16.505181,27.174041 C16.505181,31.717286 12.822201,35.400581 8.278641,35.400581 L8.226666,35.400581 C3.683106,35.400581 0.000126,31.717286 0.000126,27.174041 L0.000126,18.895211 L8.278641,18.895211 C12.822201,18.895211 16.505181,22.578506 16.505181,27.121751" id="Fill-2"></path>
                <path d="M16.505181,8.7136235 L16.505181,8.6613335 C16.505181,4.1180885 12.822201,0.4347935 8.278641,0.4347935 L8.226666,0.4347935 C3.683106,0.4347935 0.000126,4.1180885 0.000126,8.6613335 L0.000126,16.9401635 L8.278641,16.9401635 C12.822201,16.9401635 16.505181,13.2568685 16.505181,8.7136235" id="Fill-3"></path>
            </g>
        </g>
    </g>
</svg>