<?xml version="1.0" encoding="UTF-8"?>
<svg width="31px" height="31px" viewBox="0 0 31 31" version="1.1" xmlns="http://www.w3.org/2000/svg" xmlns:xlink="http://www.w3.org/1999/xlink">
    <!-- Generator: Sketch 48.1 (47250) - http://www.bohemiancoding.com/sketch -->
    <title>xl-drop</title>
    <desc>Created with Sketch.</desc>
    <defs></defs>
    <g id="Shop---Product-Desktop" stroke="none" stroke-width="1" fill="none" fill-rule="evenodd" transform="translate(-1095.000000, -1309.000000)">
        <g id="xl-drop" transform="translate(1095.000000, 1309.000000)">
            <path d="M31,15.5491049 L31,15.4508951 C31,6.91787854 24.0825811,0 15.54881,0 L15.45119,0 C6.91741894,0 0,6.91787854 0,15.4508951 L0,31 L15.54881,31 C24.0825811,31 31,24.0821215 31,15.5491049" id="Fill-3-Copy-3" fill="#000000"></path>
            <path d="M15.868,11 L12.76,15.2 L16.176,19.82 L14.748,19.82 L12.032,16.166 L9.358,19.82 L8,19.82 L11.402,15.284 L8.294,11 L9.722,11 L12.116,14.346 L14.51,11 L15.868,11 Z M17.198,11 L18.416,11 L18.416,18.812 L23.33,18.812 L23.33,19.82 L17.198,19.82 L17.198,11 Z" id="XL" fill="#FFFFFF"></path>
        </g>
    </g>
</svg>