<?xml version="1.0" encoding="UTF-8"?>
<svg width="36px" height="37px" viewBox="0 0 36 37" version="1.1" xmlns="http://www.w3.org/2000/svg" xmlns:xlink="http://www.w3.org/1999/xlink">
    <!-- Generator: Sketch 47 (45396) - http://www.bohemiancoding.com/sketch -->
    <title>minus</title>
    <desc>Created with Sketch.</desc>
    <defs></defs>
    <g id="Page-1" stroke="none" stroke-width="1" fill="none" fill-rule="evenodd">
        <g id="Desktop" transform="translate(-277.000000, -323.000000)" fill="#FFFFFF">
            <path d="M304.035156,325.908203 C306.800795,327.51368 308.98632,329.699205 310.591797,332.464844 C312.197274,335.230483 313,338.242171 313,341.5 C313,344.757829 312.197274,347.769517 310.591797,350.535156 C308.98632,353.300795 306.800795,355.48632 304.035156,357.091797 C301.269517,358.697274 298.257829,359.5 295,359.5 C291.742171,359.5 288.730483,358.697274 285.964844,357.091797 C283.199205,355.48632 281.01368,353.300795 279.408203,350.535156 C277.802726,347.769517 277,344.757829 277,341.5 C277,338.242171 277.802726,335.230483 279.408203,332.464844 C281.01368,329.699205 283.199205,327.51368 285.964844,325.908203 C288.730483,324.302726 291.742171,323.5 295,323.5 C298.257829,323.5 301.269517,324.302726 304.035156,325.908203 Z M305.933594,352.433594 C307.363288,351.003899 308.476559,349.363291 309.273438,347.511719 C310.070316,345.613272 310.46875,343.609386 310.46875,341.5 C310.46875,339.390614 310.058598,337.386728 309.238281,335.488281 C308.46484,333.636709 307.363288,331.996101 305.933594,330.566406 C304.503899,329.136712 302.863291,328.023441 301.011719,327.226562 C299.113272,326.429684 297.109386,326.03125 295,326.03125 C292.890614,326.03125 290.886728,326.441402 288.988281,327.261719 C287.136709,328.03516 285.496101,329.136712 284.066406,330.566406 C282.636712,331.996101 281.523441,333.636709 280.726562,335.488281 C279.929684,337.386728 279.53125,339.390614 279.53125,341.5 C279.53125,343.609386 279.941402,345.613272 280.761719,347.511719 C281.53516,349.363291 282.636712,351.003899 284.066406,352.433594 C285.496101,353.863288 287.136709,354.976559 288.988281,355.773438 C290.886728,356.570316 292.890614,356.96875 295,356.96875 C297.109386,356.96875 299.113272,356.558598 301.011719,355.738281 C302.863291,354.96484 304.503899,353.863288 305.933594,352.433594 Z M304.984375,342.765625 L285.015625,342.765625 C284.664061,342.765625 284.365236,342.642579 284.119141,342.396484 C283.873046,342.150389 283.75,341.851564 283.75,341.5 C283.75,341.148436 283.873046,340.849611 284.119141,340.603516 C284.365236,340.357421 284.664061,340.234375 285.015625,340.234375 L304.984375,340.234375 C305.335939,340.234375 305.634764,340.357421 305.880859,340.603516 C306.126954,340.849611 306.25,341.148436 306.25,341.5 C306.25,341.851564 306.126954,342.150389 305.880859,342.396484 C305.634764,342.642579 305.335939,342.765625 304.984375,342.765625 Z" id="minus"></path>
        </g>
    </g>
</svg>