<?xml version="1.0" encoding="UTF-8"?>
<svg width="36px" height="37px" viewBox="0 0 36 37" version="1.1" xmlns="http://www.w3.org/2000/svg" xmlns:xlink="http://www.w3.org/1999/xlink">
    <!-- Generator: Sketch 47 (45396) - http://www.bohemiancoding.com/sketch -->
    <title>plus</title>
    <desc>Created with Sketch.</desc>
    <defs></defs>
    <g id="Page-1" stroke="none" stroke-width="1" fill="none" fill-rule="evenodd">
        <g id="Desktop" transform="translate(-278.000000, -257.000000)" fill="#FFFFFF">
            <path d="M305.035156,259.908203 C307.800795,261.51368 309.98632,263.699205 311.591797,266.464844 C313.197274,269.230483 314,272.242171 314,275.5 C314,278.757829 313.197274,281.769517 311.591797,284.535156 C309.98632,287.300795 307.800795,289.48632 305.035156,291.091797 C302.269517,292.697274 299.257829,293.5 296,293.5 C292.742171,293.5 289.730483,292.697274 286.964844,291.091797 C284.199205,289.48632 282.01368,287.300795 280.408203,284.535156 C278.802726,281.769517 278,278.757829 278,275.5 C278,272.242171 278.802726,269.230483 280.408203,266.464844 C282.01368,263.699205 284.199205,261.51368 286.964844,259.908203 C289.730483,258.302726 292.742171,257.5 296,257.5 C299.257829,257.5 302.269517,258.302726 305.035156,259.908203 Z M306.933594,286.433594 C308.363288,285.003899 309.476559,283.363291 310.273438,281.511719 C311.070316,279.613272 311.46875,277.609386 311.46875,275.5 C311.46875,273.390614 311.058598,271.386728 310.238281,269.488281 C309.46484,267.636709 308.363288,265.996101 306.933594,264.566406 C305.503899,263.136712 303.863291,262.023441 302.011719,261.226562 C300.113272,260.429684 298.109386,260.03125 296,260.03125 C293.890614,260.03125 291.886728,260.441402 289.988281,261.261719 C288.136709,262.03516 286.496101,263.136712 285.066406,264.566406 C283.636712,265.996101 282.523441,267.636709 281.726562,269.488281 C280.929684,271.386728 280.53125,273.390614 280.53125,275.5 C280.53125,277.609386 280.941402,279.613272 281.761719,281.511719 C282.53516,283.363291 283.636712,285.003899 285.066406,286.433594 C286.496101,287.863288 288.136709,288.976559 289.988281,289.773438 C291.886728,290.570316 293.890614,290.96875 296,290.96875 C298.109386,290.96875 300.113272,290.558598 302.011719,289.738281 C303.863291,288.96484 305.503899,287.863288 306.933594,286.433594 Z M303.734375,274.234375 C304.085939,274.234375 304.384764,274.36328 304.630859,274.621094 C304.876954,274.878908 305,275.171873 305,275.5 C305,275.851564 304.876954,276.150389 304.630859,276.396484 C304.384764,276.642579 304.085939,276.765625 303.734375,276.765625 L297.265625,276.765625 L297.265625,283.199219 C297.265625,283.550783 297.142579,283.849608 296.896484,284.095703 C296.650389,284.341798 296.351564,284.464844 296,284.464844 C295.671873,284.464844 295.378908,284.341798 295.121094,284.095703 C294.86328,283.849608 294.734375,283.550783 294.734375,283.199219 L294.734375,276.765625 L288.265625,276.765625 C287.914061,276.765625 287.615236,276.642579 287.369141,276.396484 C287.123046,276.150389 287,275.851564 287,275.5 C287,275.171873 287.123046,274.878908 287.369141,274.621094 C287.615236,274.36328 287.914061,274.234375 288.265625,274.234375 L294.734375,274.234375 L294.734375,267.800781 C294.734375,267.449217 294.86328,267.150392 295.121094,266.904297 C295.378908,266.658202 295.671873,266.535156 296,266.535156 C296.351564,266.535156 296.650389,266.658202 296.896484,266.904297 C297.142579,267.150392 297.265625,267.449217 297.265625,267.800781 L297.265625,274.234375 L303.734375,274.234375 Z" id="plus"></path>
        </g>
    </g>
</svg>