<?xml version="1.0" encoding="utf-8"?>
<!-- Generator: Adobe Illustrator 22.0.1, SVG Export Plug-In . SVG Version: 6.00 Build 0)  -->
<svg version="1.1" id="Layer_1" xmlns="http://www.w3.org/2000/svg" xmlns:xlink="http://www.w3.org/1999/xlink" x="0px" y="0px"
	 width="83.4px" height="14.7px" viewBox="0 0 83.4 14.7" style="enable-background:new 0 0 83.4 14.7;" xml:space="preserve">
<title>Artboard 20</title>
<polygon points="7.7,0 10.2,5 15.4,5.6 11.3,9.1 12.5,14.7 7.7,11.9 2.9,14.7 4.1,9.1 0,5.6 5.6,5 "/>
<polygon points="24.7,0 27.2,5 32.4,5.6 28.3,9.1 29.5,14.7 24.7,11.9 20,14.7 21.1,9.1 17,5.6 22.6,5 "/>
<polygon points="41.7,0 44.2,5 49.4,5.6 45.3,9.1 46.5,14.7 41.7,11.9 37,14.7 38.1,9.1 34,5.6 39.6,5 "/>
<polygon points="58.7,0 61.2,5 66.4,5.6 62.3,9.1 63.5,14.7 58.7,11.9 54,14.7 55.1,9.1 51,5.6 56.6,5 "/>
<polygon points="75.7,0 78.2,5 83.4,5.6 79.3,9.1 80.5,14.7 75.7,11.9 71,14.7 72.1,9.1 68,5.6 73.6,5 "/>
</svg>
