<?xml version="1.0" encoding="UTF-8"?>
<svg width="454px" height="81px" viewBox="0 0 454 81" version="1.1" xmlns="http://www.w3.org/2000/svg" xmlns:xlink="http://www.w3.org/1999/xlink">
    <!-- Generator: Sketch 48.1 (47250) - http://www.bohemiancoding.com/sketch -->
    <title>drop-fill</title>
    <desc>Created with Sketch.</desc>
    <defs></defs>
    <g id="Shop" stroke="none" stroke-width="1" fill="none" fill-rule="evenodd">
        <g id="drop-fill" fill="#000000" stroke="#000000" stroke-width="3">
            <g id="Group" transform="translate(12.000000, 7.000000)">
                <path d="M67.3081395,33.60613 L67.3081395,33.39387 C67.3081395,14.951544 52.2888299,0 33.7600476,0 L33.5480919,0 C15.0193096,0 0,14.951544 0,33.39387 L0,67 L33.7600476,67 C52.2888299,67 67.3081395,52.048456 67.3081395,33.60613" id="Fill-1-Copy" transform="translate(33.654070, 33.500000) rotate(-360.000000) translate(-33.654070, -33.500000) "></path>
                <path d="M159.731105,33.60613 L159.731105,33.39387 C159.731105,14.951544 144.711795,0 126.183013,0 L125.971057,0 C107.442275,0 92.4229651,14.951544 92.4229651,33.39387 L92.4229651,67 L126.183013,67 C144.711795,67 159.731105,52.048456 159.731105,33.60613" id="Fill-1-Copy-2" transform="translate(126.077035, 33.500000) rotate(-360.000000) translate(-126.077035, -33.500000) "></path>
                <path d="M252.15407,33.60613 L252.15407,33.39387 C252.15407,14.951544 237.13476,0 218.605978,0 L218.394022,0 C199.86524,0 184.84593,14.951544 184.84593,33.39387 L184.84593,67 L218.605978,67 C237.13476,67 252.15407,52.048456 252.15407,33.60613" id="Fill-1-Copy-3" transform="translate(218.500000, 33.500000) rotate(-360.000000) translate(-218.500000, -33.500000) "></path>
                <path d="M344.577035,33.60613 L344.577035,33.39387 C344.577035,14.951544 329.557725,0 311.028943,0 L310.816987,0 C292.288205,0 277.268895,14.951544 277.268895,33.39387 L277.268895,67 L311.028943,67 C329.557725,67 344.577035,52.048456 344.577035,33.60613" id="Fill-1-Copy-4" transform="translate(310.922965, 33.500000) rotate(-360.000000) translate(-310.922965, -33.500000) "></path>
                <path d="M437,33.60613 L437,33.39387 C437,14.951544 421.98069,0 403.451908,0 L403.239952,0 C384.71117,0 369.69186,14.951544 369.69186,33.39387 L369.69186,67 L403.451908,67 C421.98069,67 437,52.048456 437,33.60613" id="Fill-1-Copy-5" transform="translate(403.345930, 33.500000) rotate(-360.000000) translate(-403.345930, -33.500000) "></path>
            </g>
        </g>
    </g>
</svg>