<?xml version="1.0" encoding="utf-8"?>
<!-- Generator: Adobe Illustrator 22.0.1, SVG Export Plug-In . SVG Version: 6.00 Build 0)  -->
<svg version="1.1" id="Layer_1" xmlns="http://www.w3.org/2000/svg" xmlns:xlink="http://www.w3.org/1999/xlink" x="0px" y="0px"
	 width="84.4px" height="15.7px" viewBox="0 0 84.4 15.7" style="enable-background:new 0 0 84.4 15.7;" xml:space="preserve">
<style type="text/css">
	.st0{fill:none;stroke:#000000;stroke-linecap:round;stroke-linejoin:round;}
</style>
<title>Artboard 10</title>
<polygon class="st0" points="8.2,0.5 10.7,5.5 15.9,6.1 11.8,9.6 13,15.2 8.2,12.4 3.4,15.2 4.6,9.6 0.5,6.1 6.1,5.5 "/>
<polygon class="st0" points="25.2,0.5 27.7,5.5 32.9,6.1 28.8,9.6 30,15.2 25.2,12.4 20.5,15.2 21.6,9.6 17.5,6.1 23.1,5.5 "/>
<polygon class="st0" points="42.2,0.5 44.7,5.5 49.9,6.1 45.8,9.6 47,15.2 42.2,12.4 37.5,15.2 38.6,9.6 34.5,6.1 40.1,5.5 "/>
<polygon class="st0" points="59.2,0.5 61.7,5.5 66.9,6.1 62.8,9.6 64,15.2 59.2,12.4 54.5,15.2 55.6,9.6 51.5,6.1 57.1,5.5 "/>
<polygon class="st0" points="76.2,0.5 78.7,5.5 83.9,6.1 79.8,9.6 81,15.2 76.2,12.4 71.5,15.2 72.6,9.6 68.5,6.1 74.1,5.5 "/>
</svg>
