<svg xmlns="http://www.w3.org/2000/svg" data-name="Layer 1" viewBox="0 0 100 125" x="0px" y="0px"><title>Artboard 2</title><path d="M21,98.94a2.5,2.5,0,0,0,3-1.87c1.61-6.9-3.79-11.47-4-11.66a2.5,2.5,0,0,0-2.28-.48C9.83,87.16,9.13,95.2,9.1,95.54a2.5,2.5,0,0,0,5,.4,7.61,7.61,0,0,1,3.61-5.67,6.71,6.71,0,0,1,1.4,5.66A2.5,2.5,0,0,0,21,98.94Z"/><path d="M85.63,95.94a2.5,2.5,0,0,0,5-.4c0-.34-.73-8.38-8.56-10.62a2.51,2.51,0,0,0-2.28.48c-.23.19-5.63,4.76-4,11.66a2.5,2.5,0,1,0,4.87-1.13A6.72,6.72,0,0,1,82,90.28,7.6,7.6,0,0,1,85.63,95.94Z"/><path d="M18.37,79.11c2.14,1.39,4.22,2.87,6.19,4.37a25.83,25.83,0,0,0,3.64,6.21c4.8,6,12,9,21.49,9H50c9.46,0,16.69-3,21.49-9a25.67,25.67,0,0,0,3.5-5.9l0,0c2.08-1.6,4.28-3.17,6.56-4.65A22.22,22.22,0,0,0,89.17,49.6l-3-5.41c0-.06-.08-.12-.12-.18A20.54,20.54,0,0,0,81,25.48c4.66-4,7.44-10.58,3.91-22.68A2.5,2.5,0,0,0,81.6,1.16a31,31,0,0,0-10,6.47,2.82,2.82,0,0,1-3.09.68,48.08,48.08,0,0,0-37.22,0,2.82,2.82,0,0,1-3.09-.68,31,31,0,0,0-10-6.47A2.5,2.5,0,0,0,14.83,2.8c-2.18,7.48-3.37,16.32,4,22.62a20.47,20.47,0,0,0-5.08,18.92L10.83,49.6A22.22,22.22,0,0,0,18.37,79.11ZM84.79,52A17.25,17.25,0,0,1,78.9,74.91c-.55.36-1.07.73-1.61,1.09A57.4,57.4,0,0,0,77.06,57,20.77,20.77,0,0,0,83.71,50ZM18.91,7a23.12,23.12,0,0,1,5.66,4.08,7.85,7.85,0,0,0,8.62,1.8,43,43,0,0,1,33.33,0,7.85,7.85,0,0,0,8.62-1.8A23.19,23.19,0,0,1,80.81,7c2.65,12.23-3.25,15.71-9.11,18-.9.35-1.9.68-3.14,1-2.92.85-10.5,3.71-17.78,11.94a1.28,1.28,0,0,1-1,.44h0a1.1,1.1,0,0,1-.84-.38c-7.28-8.26-14.88-11.14-17.81-12-1.29-.38-2.27-.7-3.17-1.05C22.16,22.75,16.25,19.27,18.91,7ZM62.26,43.48l-.16-.13a5.12,5.12,0,1,1,.16.13ZM34.25,34A5.29,5.29,0,1,1,29,39.29,5.3,5.3,0,0,1,34.25,34Zm10.21,6.54c.26.28.52.55.77.84a6.12,6.12,0,0,0,4.59,2.07h0a6.28,6.28,0,0,0,4.7-2.12c.24-.27.48-.53.73-.79A10.24,10.24,0,0,0,57.64,46a63.57,63.57,0,0,1-7.77,10.7A64.58,64.58,0,0,1,42.08,46,10.24,10.24,0,0,0,44.46,40.54ZM23,28.25a31.28,31.28,0,0,0,3.16,1.44c.79.31,1.61.59,2.59.9A10.28,10.28,0,0,0,38,48.88c1.4,2.49,4.25,6.73,10,13.26a2.5,2.5,0,0,0,3.75,0c5.76-6.51,8.6-10.75,10-13.25a10.28,10.28,0,0,0,9.19-18.29c1-.3,1.8-.59,2.59-.9,1.06-.41,2.13-.88,3.18-1.41a15.63,15.63,0,0,1-10.78,27,2.5,2.5,0,0,0,0,5,20.53,20.53,0,0,0,6.44-1c.8,5.37,2,19-4.74,27.35C63.82,91.3,57.9,93.71,50,93.71h-.35c-7.86,0-13.78-2.4-17.58-7.14-6.71-8.37-5.54-22-4.75-27.36a20.54,20.54,0,0,0,6.43,1,2.5,2.5,0,0,0,0-5A15.63,15.63,0,0,1,23,28.25ZM15.21,52l.94-1.72A20.77,20.77,0,0,0,22.65,57a57.56,57.56,0,0,0-.26,18.83c-.43-.29-.85-.59-1.29-.87A17.25,17.25,0,0,1,15.21,52Z"/><text x="0" y="115" fill="#000000" font-size="5px" font-weight="bold" font-family="'Helvetica Neue', Helvetica, Arial-Unicode, Arial, Sans-serif">Created by Gregor Cresnar</text><text x="0" y="120" fill="#000000" font-size="5px" font-weight="bold" font-family="'Helvetica Neue', Helvetica, Arial-Unicode, Arial, Sans-serif">from the Noun Project</text></svg>